<?xml version="1.0" standalone="no"?>
<!DOCTYPE svg PUBLIC "-//W3C//DTD SVG 20010904//EN"
 "http://www.w3.org/TR/2001/REC-SVG-20010904/DTD/svg10.dtd">
<svg version="1.0" xmlns="http://www.w3.org/2000/svg"
 width="5000.000000pt" height="5000.000000pt" viewBox="0 0 5000.000000 5000.000000"
 preserveAspectRatio="xMidYMid meet">
<metadata>
Created by potrace 1.11, written by Peter Selinger 2001-2013
</metadata>
<g transform="translate(0.000000,5000.000000) scale(0.100000,-0.100000)"
fill="#000000" stroke="none">
<path d="M25098 48845 c-2 -2 -111 -6 -243 -10 -132 -3 -280 -8 -330 -10 -140
-6 -351 -15 -445 -20 -47 -3 -134 -7 -195 -10 -117 -6 -226 -12 -340 -20 -38
-3 -108 -7 -155 -10 -47 -3 -113 -8 -147 -10 -35 -3 -93 -7 -130 -10 -38 -3
-93 -7 -123 -10 -30 -3 -86 -7 -125 -10 -172 -13 -280 -22 -345 -30 -19 -2
-71 -7 -115 -10 -43 -3 -93 -8 -110 -10 -16 -2 -57 -7 -90 -10 -33 -3 -85 -8
-115 -11 -30 -2 -68 -7 -85 -9 -16 -3 -57 -7 -90 -10 -33 -3 -74 -7 -91 -10
-17 -2 -57 -7 -90 -10 -32 -3 -90 -10 -129 -15 -38 -5 -95 -12 -125 -15 -30
-3 -66 -8 -80 -10 -14 -3 -47 -7 -75 -10 -27 -3 -68 -8 -90 -10 -22 -3 -58 -8
-80 -11 -22 -3 -67 -9 -100 -14 -33 -5 -85 -12 -115 -15 -30 -3 -77 -10 -105
-15 -27 -5 -75 -12 -105 -15 -59 -7 -83 -10 -170 -25 -30 -5 -75 -12 -100 -15
-25 -3 -56 -8 -70 -10 -43 -7 -284 -46 -310 -50 -34 -5 -610 -106 -635 -111
-11 -2 -33 -6 -50 -9 -30 -5 -57 -10 -105 -21 -14 -2 -47 -9 -75 -14 -27 -6
-61 -12 -75 -15 -14 -3 -41 -8 -60 -11 -19 -4 -44 -9 -55 -11 -11 -2 -31 -6
-45 -9 -190 -39 -360 -76 -579 -125 -146 -33 -277 -62 -291 -65 -14 -3 -43
-10 -65 -16 -22 -5 -51 -12 -65 -15 -14 -2 -43 -9 -65 -15 -22 -5 -48 -12 -58
-14 -10 -2 -27 -6 -37 -9 -10 -3 -27 -8 -37 -10 -141 -29 -747 -183 -1058
-270 -404 -112 -1023 -310 -1395 -444 -63 -23 -153 -56 -200 -73 -135 -49
-612 -240 -765 -307 -77 -33 -146 -61 -152 -61 -7 0 -13 -4 -13 -10 0 -5 -6
-10 -14 -10 -8 0 -46 -16 -85 -35 -39 -19 -73 -35 -76 -35 -3 0 -93 -43 -200
-94 -108 -52 -199 -96 -203 -96 -4 -1 -11 -5 -17 -10 -5 -4 -73 -40 -150 -80
-77 -40 -152 -81 -167 -92 -16 -11 -28 -17 -28 -14 0 4 -17 -4 -37 -18 -21
-13 -110 -65 -198 -115 -260 -150 -409 -245 -705 -450 -52 -36 -99 -69 -105
-73 -5 -5 -62 -46 -125 -92 -63 -46 -133 -98 -155 -115 -62 -47 -218 -170
-240 -188 -11 -10 -49 -42 -85 -72 -36 -31 -76 -65 -89 -76 -115 -97 -389
-371 -506 -507 -64 -74 -77 -90 -128 -153 -26 -33 -54 -68 -62 -77 -14 -17
-185 -251 -215 -294 -75 -108 -201 -296 -216 -323 -10 -18 -23 -41 -29 -50
-205 -334 -419 -819 -555 -1256 -30 -98 -91 -307 -95 -325 -2 -8 -8 -35 -15
-60 -7 -25 -13 -52 -15 -60 -2 -8 -19 -80 -38 -160 -20 -80 -41 -167 -47 -195
-7 -27 -13 -57 -16 -65 -2 -8 -17 -78 -35 -155 -38 -175 -38 -175 -44 -205 -3
-14 -7 -36 -10 -50 -3 -14 -8 -38 -10 -55 -3 -16 -8 -37 -10 -45 -3 -8 -7 -33
-10 -55 -2 -22 -7 -51 -10 -65 -2 -14 -7 -38 -9 -55 -3 -16 -12 -70 -20 -120
-8 -49 -18 -110 -21 -135 -3 -25 -10 -72 -15 -105 -5 -33 -12 -82 -15 -110 -3
-27 -7 -63 -9 -80 -5 -39 -15 -129 -21 -185 -3 -25 -7 -65 -10 -90 -3 -25 -7
-70 -10 -100 -2 -30 -7 -80 -10 -110 -7 -76 -14 -163 -20 -245 -2 -38 -7 -110
-11 -160 -3 -49 -8 -117 -9 -150 -2 -33 -6 -130 -10 -215 -12 -239 -12 -264
-21 -590 -4 -168 -8 -591 -7 -940 0 -644 6 -1060 30 -2320 11 -557 10 -7045
-1 -7620 -14 -773 -11 -1659 9 -2040 19 -387 43 -669 81 -960 2 -19 7 -55 9
-80 3 -25 13 -85 21 -135 8 -49 17 -103 20 -120 3 -16 12 -66 20 -110 8 -44
18 -91 20 -105 3 -14 11 -52 19 -85 17 -72 54 -232 60 -260 17 -79 36 -158 40
-165 3 -4 7 -23 10 -42 3 -18 21 -90 41 -158 19 -69 37 -132 39 -140 14 -58
114 -372 158 -500 165 -473 386 -959 610 -1344 29 -48 63 -107 76 -130 13 -22
34 -55 47 -73 13 -17 24 -34 24 -38 0 -13 417 -606 439 -625 3 -3 25 -30 48
-60 191 -254 519 -603 764 -813 24 -21 55 -49 69 -61 55 -50 329 -266 338
-266 6 0 12 -3 14 -8 4 -11 229 -173 393 -284 381 -258 790 -477 1255 -673
117 -49 436 -172 465 -180 6 -1 17 -5 25 -8 26 -11 294 -99 310 -102 8 -2 51
-14 95 -28 77 -24 110 -34 260 -76 59 -17 327 -85 375 -96 26 -5 322 -75 409
-96 46 -11 124 -29 175 -39 50 -11 121 -26 157 -34 36 -8 79 -17 95 -19 16 -3
76 -15 134 -26 58 -11 116 -22 130 -24 14 -3 45 -8 70 -12 25 -4 54 -9 65 -11
11 -2 49 -9 85 -15 97 -15 120 -19 180 -29 30 -5 75 -12 100 -15 25 -3 56 -8
70 -10 14 -2 45 -7 70 -10 25 -3 56 -8 70 -10 14 -2 52 -7 85 -10 33 -4 67 -8
75 -10 8 -2 40 -7 70 -10 30 -3 72 -8 93 -10 20 -3 54 -7 75 -10 20 -2 60 -7
87 -10 28 -3 93 -10 145 -15 52 -6 120 -13 150 -16 30 -2 80 -7 110 -9 30 -3
78 -7 105 -10 28 -2 82 -7 120 -10 90 -9 129 -12 245 -20 52 -3 118 -8 145
-10 28 -3 91 -7 140 -10 90 -5 179 -10 330 -20 101 -6 303 -16 420 -20 50 -2
169 -6 265 -10 258 -9 389 -13 760 -21 184 -3 336 -7 338 -9 10 -9 -348 -124
-578 -185 -122 -33 -581 -152 -630 -165 -8 -2 -27 -8 -42 -14 -16 -6 -28 -9
-28 -6 0 2 -25 -5 -57 -16 -55 -19 -126 -19 -4794 -19 l-4737 0 -108 -26 c-59
-14 -114 -27 -123 -29 -103 -21 -171 -43 -171 -56 0 -5 -5 -9 -10 -9 -9 0 -65
-40 -126 -89 -5 -4 -20 -13 -31 -19 -11 -6 -59 -65 -105 -130 -68 -94 -87
-129 -93 -168 -5 -27 -10 -53 -11 -59 -2 -5 -17 -65 -33 -132 -30 -120 -30
-126 -36 -470 -6 -362 -11 -606 -20 -878 -3 -88 -7 -236 -10 -330 -3 -93 -7
-226 -10 -295 -2 -69 -7 -204 -10 -300 -3 -96 -8 -231 -10 -300 -2 -69 -7
-217 -10 -330 -3 -113 -8 -252 -10 -310 -27 -828 -28 -2329 0 -2825 2 -38 7
-122 10 -185 3 -63 8 -138 10 -167 2 -28 6 -96 10 -150 3 -54 7 -116 10 -138
2 -22 7 -71 10 -110 6 -70 9 -96 20 -210 11 -116 22 -215 35 -310 5 -38 12
-88 15 -110 26 -210 94 -609 125 -740 23 -95 72 -312 77 -335 2 -14 11 -52 20
-85 8 -33 17 -68 18 -78 2 -9 11 -44 19 -78 9 -33 18 -73 21 -87 3 -15 23 -90
45 -167 23 -77 42 -144 44 -150 15 -60 128 -378 155 -440 5 -11 24 -56 42
-100 50 -123 198 -408 270 -523 113 -182 373 -536 479 -652 22 -24 40 -47 40
-51 0 -11 427 -439 504 -505 38 -32 74 -63 80 -69 34 -30 135 -113 208 -171
46 -36 90 -71 98 -77 8 -7 33 -26 55 -42 22 -17 44 -34 50 -38 141 -111 578
-410 781 -534 332 -204 756 -431 1087 -582 37 -17 96 -44 131 -60 81 -38 438
-190 456 -196 3 -1 23 -9 45 -19 75 -33 455 -176 468 -176 7 0 17 -4 22 -9 6
-5 39 -19 75 -31 36 -12 72 -24 80 -27 8 -3 20 -7 25 -8 11 -3 118 -42 150
-54 21 -9 170 -59 195 -66 8 -2 94 -29 190 -60 96 -31 183 -58 193 -60 10 -2
57 -16 105 -31 48 -15 101 -30 117 -34 17 -5 77 -22 135 -38 108 -32 177 -50
195 -53 6 -1 20 -5 31 -10 21 -7 341 -92 394 -103 14 -3 117 -29 230 -56 113
-28 223 -55 245 -60 54 -11 64 -14 262 -60 144 -34 274 -63 378 -85 92 -20
275 -58 295 -62 14 -2 93 -18 175 -34 83 -17 186 -37 230 -44 44 -8 91 -17
105 -20 14 -2 36 -7 50 -10 14 -2 39 -7 55 -9 17 -3 84 -15 150 -26 66 -12
136 -23 155 -26 19 -2 46 -6 60 -9 14 -3 42 -8 64 -11 21 -3 48 -8 60 -10 27
-6 328 -51 426 -65 41 -6 86 -12 100 -14 14 -2 48 -7 75 -11 28 -3 58 -8 69
-10 10 -2 44 -6 75 -9 31 -3 70 -9 86 -12 17 -3 41 -7 55 -8 14 -2 48 -6 75
-9 28 -3 75 -9 105 -12 30 -4 63 -8 72 -10 9 -1 48 -6 85 -9 37 -4 76 -9 85
-10 9 -2 48 -7 85 -10 37 -4 80 -9 96 -11 15 -2 51 -7 80 -9 28 -3 70 -7 92
-10 22 -2 72 -7 110 -10 39 -4 84 -8 100 -11 17 -2 64 -6 105 -9 41 -3 91 -8
110 -10 41 -5 130 -13 215 -20 33 -2 85 -7 115 -10 75 -6 236 -18 410 -30 47
-3 117 -8 155 -10 107 -8 349 -22 520 -30 244 -13 339 -16 805 -32 473 -16
1981 -8 2415 12 39 2 144 6 235 10 91 3 199 8 240 10 295 16 369 20 518 30 39
3 107 7 150 10 125 8 224 16 267 19 22 2 83 7 135 11 52 4 111 8 130 10 47 4
197 17 350 30 41 4 89 8 105 10 17 2 64 7 105 10 41 4 87 8 101 11 14 2 52 6
85 9 32 3 79 8 104 10 25 2 61 7 80 9 19 3 62 8 95 11 63 6 76 7 215 25 47 6
103 13 125 16 22 2 56 6 75 9 19 2 58 7 85 10 53 6 224 28 340 45 39 5 88 13
110 16 22 3 51 7 65 9 14 3 48 7 75 10 28 3 57 8 65 10 8 2 35 7 60 10 25 3
104 15 175 26 72 12 139 22 150 23 11 2 34 6 50 9 17 4 50 9 75 12 25 3 52 8
60 10 8 2 33 7 55 10 23 3 52 8 65 10 14 3 52 10 85 15 33 5 69 12 80 14 11 2
40 7 65 11 25 4 54 9 65 11 11 2 58 11 105 20 47 9 96 18 110 21 101 20 230
44 255 49 17 3 84 17 150 31 66 14 129 27 140 29 11 2 43 8 71 14 28 6 63 13
79 16 16 3 32 7 35 9 4 2 22 7 41 10 19 3 140 30 269 60 129 29 246 56 260 59
14 2 63 14 110 26 47 12 92 23 100 25 439 94 1330 343 1900 531 74 24 138 44
142 45 4 0 25 7 45 16 21 8 114 42 208 74 93 32 179 63 190 68 11 5 63 25 115
44 112 42 394 152 500 197 377 160 619 271 925 426 294 149 382 199 737 409
86 51 136 83 288 185 209 139 316 213 345 237 11 10 43 33 70 52 58 40 328
242 335 250 3 3 41 35 85 71 44 35 85 69 91 75 6 5 40 35 75 65 159 137 394
371 534 531 56 63 180 217 229 284 17 22 33 42 36 45 8 7 187 260 265 375 67
99 185 286 198 315 4 8 15 29 25 45 71 117 191 356 276 551 31 71 61 138 66
149 59 134 228 632 246 723 3 13 11 42 18 65 16 48 118 464 152 622 1 6 16 70
33 144 17 73 33 143 35 155 2 11 7 39 11 61 4 22 9 49 11 60 35 187 44 242 54
305 6 41 13 86 15 100 2 14 6 45 10 70 4 25 8 56 10 70 2 14 7 45 10 70 10 63
12 86 19 160 4 36 9 76 11 90 5 29 12 96 20 190 3 36 7 85 10 110 9 88 14 146
21 240 46 661 57 1059 57 1955 0 585 -6 1112 -18 1680 -15 706 -20 1230 -19
2200 0 958 3 1400 19 2395 2 102 6 401 10 665 4 264 8 595 11 735 4 331 4
1851 0 2090 -10 465 -27 943 -41 1185 -3 44 -7 123 -10 175 -6 119 -14 235
-21 325 -10 129 -13 169 -19 255 -3 47 -8 101 -10 120 -2 19 -6 67 -10 105 -3
39 -8 90 -11 115 -4 25 -8 61 -10 80 -12 127 -15 157 -19 184 -5 43 -14 112
-20 171 -7 57 -9 78 -25 191 -6 44 -12 90 -14 101 -3 11 -7 44 -11 74 -3 30
-8 61 -10 69 -2 8 -7 33 -10 55 -3 23 -7 52 -10 65 -3 13 -7 42 -10 65 -8 55
-34 200 -45 255 -5 25 -12 57 -14 72 -3 15 -12 63 -20 105 -9 43 -18 87 -20
98 -13 68 -112 496 -156 675 -17 69 -32 132 -34 140 -14 58 -39 152 -50 190
-8 25 -21 72 -31 105 -53 191 -152 489 -230 695 -46 122 -56 147 -88 220 -8
19 -27 63 -41 98 -82 194 -324 680 -356 712 -3 3 -16 25 -29 50 -55 102 -337
528 -394 595 -4 6 -41 55 -80 110 -40 55 -80 109 -89 120 -9 11 -45 56 -79
100 -35 44 -68 85 -73 91 -6 6 -27 31 -46 54 -85 104 -269 299 -419 444 -47
44 -94 90 -105 101 -26 26 -230 201 -275 235 -17 14 -40 32 -49 41 -55 50
-413 313 -557 409 -13 8 -60 40 -106 71 -130 86 -424 269 -434 269 -2 0 -27
13 -55 30 -126 74 -424 222 -692 343 -97 44 -273 115 -401 162 -67 25 -131 50
-142 54 -79 36 -730 232 -915 276 -8 2 -35 8 -60 14 -25 7 -56 14 -70 17 -14
2 -34 8 -45 11 -11 4 -26 8 -34 9 -38 7 -119 27 -141 35 -14 4 -41 11 -60 14
-19 4 -118 26 -220 50 -176 41 -478 107 -547 119 -17 4 -88 17 -158 31 -69 14
-143 28 -163 31 -20 3 -44 7 -53 10 -9 2 -34 7 -55 9 -22 3 -59 9 -84 15 -178
39 -207 40 -952 40 l-727 0 -46 58 c-25 31 -56 70 -68 85 -12 16 -33 41 -47
56 -14 16 -54 61 -90 101 -36 40 -73 80 -82 89 -10 8 -18 19 -18 23 0 5 2052
8 4559 8 l4560 0 128 31 c70 17 137 32 148 35 69 13 122 40 216 108 93 67 114
88 174 174 38 53 72 99 76 102 6 4 53 192 88 351 6 26 13 208 16 405 6 381 10
581 20 889 8 259 14 469 20 660 2 88 7 239 10 335 4 96 8 236 10 310 2 74 7
236 10 360 36 1222 36 2204 0 2955 -4 83 -8 170 -10 195 -2 25 -6 95 -10 155
-4 61 -8 128 -10 150 -9 115 -17 214 -20 245 -2 19 -7 73 -10 119 -4 47 -8 93
-10 102 -2 10 -6 44 -9 76 -8 79 -17 153 -21 183 -10 72 -15 109 -19 145 -15
119 -59 395 -80 505 -3 14 -11 54 -17 90 -32 176 -182 813 -240 1020 -11 41
-22 82 -24 90 -11 56 -155 463 -210 595 -121 290 -283 593 -429 802 -30 43
-65 93 -78 111 -13 18 -27 39 -33 45 -5 7 -26 35 -45 62 -40 59 -27 41 -141
185 -50 63 -116 144 -147 180 -73 85 -441 452 -511 510 -29 25 -65 56 -80 68
-61 55 -78 69 -121 102 -25 19 -58 47 -75 62 -16 15 -33 28 -37 28 -4 0 -13 6
-20 13 -7 7 -44 36 -83 65 -38 28 -81 61 -95 72 -14 11 -47 36 -75 55 -27 19
-75 52 -105 74 -30 22 -134 93 -230 158 -96 65 -176 121 -178 126 -2 4 -7 7
-12 7 -4 0 -61 33 -127 74 -105 65 -305 181 -478 276 -115 64 -531 269 -690
340 -192 87 -542 233 -680 285 -55 20 -113 43 -130 50 -119 51 -675 240 -985
335 -58 18 -121 37 -140 43 -19 6 -39 12 -45 13 -5 1 -41 11 -79 23 -37 11
-78 23 -90 25 -11 3 -59 16 -106 30 -73 21 -329 90 -379 101 -9 3 -52 14 -96
25 -104 28 -100 27 -175 43 -36 8 -113 27 -172 41 -193 47 -298 71 -563 132
-11 3 -30 7 -43 10 -13 2 -76 16 -140 30 -203 44 -700 144 -792 158 -19 3 -46
8 -60 11 -30 5 -539 91 -595 100 -22 4 -51 8 -65 10 -14 2 -119 17 -235 34
-115 17 -228 33 -250 36 -22 2 -51 7 -65 9 -14 3 -52 8 -85 11 -33 3 -67 8
-75 10 -8 2 -42 6 -75 10 -95 9 -148 16 -175 20 -14 3 -52 7 -85 10 -33 4 -71
8 -85 10 -14 2 -50 6 -80 10 -30 3 -93 10 -140 15 -47 5 -112 12 -145 15 -33
3 -78 8 -100 10 -22 3 -65 7 -95 10 -30 2 -77 7 -105 9 -27 3 -81 8 -120 11
-38 4 -88 8 -110 10 -22 3 -76 7 -120 10 -44 3 -98 7 -120 10 -37 4 -73 6
-285 20 -41 3 -106 8 -145 10 -38 3 -108 8 -155 10 -47 3 -123 7 -170 10 -47
3 -132 7 -190 10 -58 3 -141 7 -185 10 -44 2 -163 7 -264 11 -101 3 -229 8
-285 11 -123 5 -1933 13 -1938 8z m8457 -6518 c11 -3 47 -8 80 -11 93 -10 136
-17 183 -27 57 -12 251 -84 332 -123 36 -17 67 -31 70 -31 3 0 46 -22 95 -49
113 -61 210 -124 255 -166 19 -18 53 -49 75 -70 40 -37 130 -132 195 -205 133
-150 332 -600 355 -800 24 -216 25 -582 1 -700 -2 -11 -7 -47 -11 -80 -11 -99
-142 -424 -233 -580 -84 -145 -128 -201 -263 -335 -127 -127 -160 -154 -245
-210 -95 -62 -280 -156 -394 -199 -47 -18 -94 -37 -105 -41 -57 -24 -146 -48
-195 -54 -30 -4 -80 -10 -110 -14 -72 -9 -457 -9 -541 0 -111 12 -189 34 -296
83 -17 8 -34 15 -38 15 -11 0 -235 115 -300 154 -114 69 -280 222 -445 412
-37 42 -90 121 -90 133 0 6 -4 11 -10 11 -5 0 -10 4 -10 8 0 5 -22 49 -50 98
-105 187 -215 469 -231 593 -24 191 -32 472 -16 626 4 39 10 95 13 125 5 55
59 230 93 305 10 22 24 56 32 75 38 95 168 336 204 376 5 7 29 34 52 60 92
108 240 244 324 297 177 112 390 211 634 293 l130 44 220 -4 c121 -3 229 -7
240 -9z m-16880 -30901 c11 -3 33 -5 49 -5 l28 -1 -7 -72 c-13 -119 -13 -125
-20 -320 -4 -129 -3 -200 5 -230 7 -24 14 -54 16 -66 10 -50 70 -111 194 -195
156 -105 217 -124 326 -99 56 12 90 30 184 93 115 77 275 189 296 207 6 5 33
26 61 45 l50 36 35 -37 c37 -39 87 -110 126 -177 29 -51 153 -305 157 -319 1
-6 8 -24 15 -41 29 -71 69 -199 75 -243 4 -26 9 -58 11 -72 27 -157 26 -544
-2 -765 -8 -64 -31 -147 -70 -252 -40 -108 -149 -338 -186 -393 -12 -19 -30
-48 -38 -64 -36 -70 -240 -285 -370 -390 -172 -140 -566 -315 -765 -342 -27
-3 -59 -8 -70 -11 -37 -9 -469 -11 -540 -3 -137 17 -154 20 -202 36 -233 79
-504 221 -633 332 -170 147 -334 325 -406 442 -137 219 -283 554 -299 686 -4
27 -8 56 -10 64 -16 62 -24 442 -11 540 2 19 7 62 11 95 9 88 12 99 35 167
112 321 259 608 380 742 143 157 240 243 350 307 118 69 360 185 360 172 0 -3
6 -1 13 5 11 9 239 89 279 98 10 2 26 6 36 8 9 2 40 7 67 11 28 4 68 11 90 15
38 8 339 4 380 -4z"/>
</g>
</svg>
